<?xml version="1.0" encoding="UTF-8" standalone="no"?>
<svg width="800" height="340" xmlns="http://www.w3.org/2000/svg">
  <style>
    text {
      font-family: sans-serif;
      font-size: 16px;
    }
  </style>
  <text x="400.000000" y="30" text-anchor="middle" font-weight="bold">Implementation Status</text>
  <g>
    <!-- Label -->
    <text x="110" y="88.000000" text-anchor="end" fill="black">Derivations</text>
    <!-- Implemented bar (blue) -->
    <rect x="120" y="60.000000" width="512" height="40" fill="#4299e1" />
    <!-- Missing bar (red) -->
    <rect x="632" y="60.000000" width="0" height="40" fill="#fc8181" />
    <!-- Overlaid text -->
    <text x="376.000000" y="85.000000" text-anchor="middle" fill="white" font-size="14px"> 128 </text>
    <!-- Total count -->
    <text x="642" y="88.000000" text-anchor="start" fill="black"> 128 </text>
  </g>
  <g>
    <!-- Label -->
    <text x="110" y="148.000000" text-anchor="end" fill="black">Services</text>
    <!-- Implemented bar (blue) -->
    <rect x="120" y="120.000000" width="92" height="40" fill="#4299e1" />
    <!-- Missing bar (red) -->
    <rect x="212" y="120.000000" width="12" height="40" fill="#fc8181" />
    <!-- Overlaid text -->
    <text x="166.000000" y="145.000000" text-anchor="middle" fill="white" font-size="14px"> 23 </text>
    <!-- Total count -->
    <text x="234" y="148.000000" text-anchor="start" fill="black"> 26 </text>
  </g>
  <g>
    <!-- Label -->
    <text x="110" y="208.000000" text-anchor="end" fill="black">Tests</text>
    <!-- Implemented bar (blue) -->
    <rect x="120" y="180.000000" width="80" height="40" fill="#4299e1" />
    <!-- Missing bar (red) -->
    <rect x="200" y="180.000000" width="28" height="40" fill="#fc8181" />
    <!-- Overlaid text -->
    <text x="160.000000" y="205.000000" text-anchor="middle" fill="white" font-size="14px"> 20 </text>
    <!-- Total count -->
    <text x="238" y="208.000000" text-anchor="start" fill="black"> 27 </text>
  </g>
  <g>
    <!-- Label -->
    <text x="110" y="268.000000" text-anchor="end" fill="black">Examples</text>
    <!-- Implemented bar (blue) -->
    <rect x="120" y="240.000000" width="32" height="40" fill="#4299e1" />
    <!-- Missing bar (red) -->
    <rect x="152" y="240.000000" width="76" height="40" fill="#fc8181" />
    <!-- Overlaid text -->
    <text x="190.000000" y="265.000000" text-anchor="middle" fill="white" font-size="14px"> 19 </text>
    <!-- Total count -->
    <text x="238" y="268.000000" text-anchor="start" fill="black"> 27 </text>
  </g>
  <g transform="translate(120, 300)">
    <!-- Implemented legend item -->
    <rect x="0" y="0" width="20" height="20" fill="#4299e1" />
    <text x="30" y="15" fill="black">Implemented</text>
    <!-- Missing legend item -->
    <rect x="150" y="0" width="20" height="20" fill="#fc8181" />
    <text x="180" y="15" fill="black">Missing</text>
  </g>
</svg>
