<svg xmlns="http://www.w3.org/2000/svg" viewBox="0 0 698 1240">
  <g transform="translate(148, 20)">
    <!-- Table Headers -->
    <text x="90" y="15" font-family="sans-serif" font-size="12" text-anchor="middle">Implemented</text>
    <text x="165" y="15" font-family="sans-serif" font-size="12" text-anchor="middle">Missing</text>
    <text x="0" y="55" font-family="sans-serif" font-size="12">derivations</text>
    <rect x="80" y="40" width="20" height="20" fill="mediumturquoise" />
    <rect x="160" y="40" width="20" height="20" fill="lightcoral" />
    <text x="0" y="85" font-family="sans-serif" font-size="12">services</text>
    <rect x="80" y="70" width="20" height="20" fill="seagreen" />
    <rect x="160" y="70" width="20" height="20" fill="crimson" />
    <text x="0" y="115" font-family="sans-serif" font-size="12">programs</text>
    <rect x="80" y="100" width="20" height="20" fill="teal" />
    <rect x="160" y="100" width="20" height="20" fill="tomato" />
    <text x="0" y="145" font-family="sans-serif" font-size="12">tests</text>
    <rect x="80" y="130" width="20" height="20" fill="green" />
    <rect x="160" y="130" width="20" height="20" fill="hotpink" />
    <text x="0" y="175" font-family="sans-serif" font-size="12">examples</text>
    <rect x="80" y="160" width="20" height="20" fill="mediumseagreen" />
    <rect x="160" y="160" width="20" height="20" fill="orange" />
  </g>
  <g transform="translate(0, 1140)">
    <text x="138" y="20" font-family="sans-serif" font-size="14" text-anchor="end">Aerogramme</text>
    <g transform="translate(148, 0)">
      <rect x="0" y="0" width="35" height="30" fill="mediumturquoise" />
      <rect x="35" y="0" width="0" height="30" fill="seagreen" />
      <rect x="35" y="0" width="0" height="30" fill="teal" />
      <rect x="35" y="0" width="0" height="30" fill="green" />
      <rect x="35" y="0" width="0" height="30" fill="mediumseagreen" />
      <rect x="35" y="0" width="0" height="30" fill="lightcoral" />
      <rect x="35" y="0" width="280" height="30" fill="crimson" />
      <rect x="315" y="0" width="0" height="30" fill="tomato" />
      <rect x="315" y="0" width="70" height="30" fill="hotpink" />
      <rect x="385" y="0" width="14" height="30" fill="orange" />
    </g>
  </g>
  <g transform="translate(0, 440)">
    <text x="138" y="20" font-family="sans-serif" font-size="14" text-anchor="end">Agorakit</text>
    <g transform="translate(148, 0)">
      <rect x="0" y="0" width="35" height="30" fill="mediumturquoise" />
      <rect x="35" y="0" width="280" height="30" fill="seagreen" />
      <rect x="315" y="0" width="0" height="30" fill="teal" />
      <rect x="315" y="0" width="70" height="30" fill="green" />
      <rect x="385" y="0" width="0" height="30" fill="mediumseagreen" />
      <rect x="385" y="0" width="0" height="30" fill="lightcoral" />
      <rect x="385" y="0" width="0" height="30" fill="crimson" />
      <rect x="385" y="0" width="0" height="30" fill="tomato" />
      <rect x="385" y="0" width="0" height="30" fill="hotpink" />
      <rect x="385" y="0" width="14" height="30" fill="orange" />
    </g>
  </g>
  <g transform="translate(0, 1190)">
    <text x="138" y="20" font-family="sans-serif" font-size="14" text-anchor="end">CNSPRCY</text>
    <g transform="translate(148, 0)">
      <rect x="0" y="0" width="35" height="30" fill="mediumturquoise" />
      <rect x="35" y="0" width="0" height="30" fill="seagreen" />
      <rect x="35" y="0" width="0" height="30" fill="teal" />
      <rect x="35" y="0" width="0" height="30" fill="green" />
      <rect x="35" y="0" width="0" height="30" fill="mediumseagreen" />
      <rect x="35" y="0" width="0" height="30" fill="lightcoral" />
      <rect x="35" y="0" width="280" height="30" fill="crimson" />
      <rect x="315" y="0" width="0" height="30" fill="tomato" />
      <rect x="315" y="0" width="70" height="30" fill="hotpink" />
      <rect x="385" y="0" width="14" height="30" fill="orange" />
    </g>
  </g>
  <g transform="translate(0, 490)">
    <text x="138" y="20" font-family="sans-serif" font-size="14" text-anchor="end">Canaille</text>
    <g transform="translate(148, 0)">
      <rect x="0" y="0" width="35" height="30" fill="mediumturquoise" />
      <rect x="35" y="0" width="280" height="30" fill="seagreen" />
      <rect x="315" y="0" width="0" height="30" fill="teal" />
      <rect x="315" y="0" width="70" height="30" fill="green" />
      <rect x="385" y="0" width="0" height="30" fill="mediumseagreen" />
      <rect x="385" y="0" width="0" height="30" fill="lightcoral" />
      <rect x="385" y="0" width="0" height="30" fill="crimson" />
      <rect x="385" y="0" width="0" height="30" fill="tomato" />
      <rect x="385" y="0" width="0" height="30" fill="hotpink" />
      <rect x="385" y="0" width="14" height="30" fill="orange" />
    </g>
  </g>
  <g transform="translate(0, 540)">
    <text x="138" y="20" font-family="sans-serif" font-size="14" text-anchor="end">Cryptpad</text>
    <g transform="translate(148, 0)">
      <rect x="0" y="0" width="35" height="30" fill="mediumturquoise" />
      <rect x="35" y="0" width="280" height="30" fill="seagreen" />
      <rect x="315" y="0" width="0" height="30" fill="teal" />
      <rect x="315" y="0" width="70" height="30" fill="green" />
      <rect x="385" y="0" width="0" height="30" fill="mediumseagreen" />
      <rect x="385" y="0" width="0" height="30" fill="lightcoral" />
      <rect x="385" y="0" width="0" height="30" fill="crimson" />
      <rect x="385" y="0" width="0" height="30" fill="tomato" />
      <rect x="385" y="0" width="0" height="30" fill="hotpink" />
      <rect x="385" y="0" width="14" height="30" fill="orange" />
    </g>
  </g>
  <g transform="translate(0, 1040)">
    <text x="138" y="20" font-family="sans-serif" font-size="14" text-anchor="end">Flarum</text>
    <g transform="translate(148, 0)">
      <rect x="0" y="0" width="35" height="30" fill="mediumturquoise" />
      <rect x="35" y="0" width="280" height="30" fill="seagreen" />
      <rect x="315" y="0" width="0" height="30" fill="teal" />
      <rect x="315" y="0" width="0" height="30" fill="green" />
      <rect x="315" y="0" width="0" height="30" fill="mediumseagreen" />
      <rect x="315" y="0" width="0" height="30" fill="lightcoral" />
      <rect x="315" y="0" width="0" height="30" fill="crimson" />
      <rect x="315" y="0" width="0" height="30" fill="tomato" />
      <rect x="315" y="0" width="70" height="30" fill="hotpink" />
      <rect x="385" y="0" width="14" height="30" fill="orange" />
    </g>
  </g>
  <g transform="translate(0, 390)">
    <text x="138" y="20" font-family="sans-serif" font-size="14" text-anchor="end">Forgejo</text>
    <g transform="translate(148, 0)">
      <rect x="0" y="0" width="89" height="30" fill="mediumturquoise" />
      <rect x="89" y="0" width="238" height="30" fill="seagreen" />
      <rect x="328" y="0" width="0" height="30" fill="teal" />
      <rect x="328" y="0" width="59" height="30" fill="green" />
      <rect x="388" y="0" width="0" height="30" fill="mediumseagreen" />
      <rect x="388" y="0" width="0" height="30" fill="lightcoral" />
      <rect x="388" y="0" width="0" height="30" fill="crimson" />
      <rect x="388" y="0" width="0" height="30" fill="tomato" />
      <rect x="388" y="0" width="0" height="30" fill="hotpink" />
      <rect x="388" y="0" width="11" height="30" fill="orange" />
    </g>
  </g>
  <g transform="translate(0, 1090)">
    <text x="138" y="20" font-family="sans-serif" font-size="14" text-anchor="end">GNUTaler</text>
    <g transform="translate(148, 0)">
      <rect x="0" y="0" width="205" height="30" fill="mediumturquoise" />
      <rect x="205" y="0" width="0" height="30" fill="seagreen" />
      <rect x="205" y="0" width="0" height="30" fill="teal" />
      <rect x="205" y="0" width="0" height="30" fill="green" />
      <rect x="205" y="0" width="0" height="30" fill="mediumseagreen" />
      <rect x="205" y="0" width="0" height="30" fill="lightcoral" />
      <rect x="205" y="0" width="149" height="30" fill="crimson" />
      <rect x="355" y="0" width="0" height="30" fill="tomato" />
      <rect x="355" y="0" width="37" height="30" fill="hotpink" />
      <rect x="392" y="0" width="7" height="30" fill="orange" />
    </g>
  </g>
  <g transform="translate(0, 590)">
    <text x="138" y="20" font-family="sans-serif" font-size="14" text-anchor="end">Gancio</text>
    <g transform="translate(148, 0)">
      <rect x="0" y="0" width="35" height="30" fill="mediumturquoise" />
      <rect x="35" y="0" width="280" height="30" fill="seagreen" />
      <rect x="315" y="0" width="0" height="30" fill="teal" />
      <rect x="315" y="0" width="70" height="30" fill="green" />
      <rect x="385" y="0" width="0" height="30" fill="mediumseagreen" />
      <rect x="385" y="0" width="0" height="30" fill="lightcoral" />
      <rect x="385" y="0" width="0" height="30" fill="crimson" />
      <rect x="385" y="0" width="0" height="30" fill="tomato" />
      <rect x="385" y="0" width="0" height="30" fill="hotpink" />
      <rect x="385" y="0" width="14" height="30" fill="orange" />
    </g>
  </g>
  <g transform="translate(0, 640)">
    <text x="138" y="20" font-family="sans-serif" font-size="14" text-anchor="end">LiberaForms-E2EE</text>
    <g transform="translate(148, 0)">
      <rect x="0" y="0" width="35" height="30" fill="mediumturquoise" />
      <rect x="35" y="0" width="280" height="30" fill="seagreen" />
      <rect x="315" y="0" width="0" height="30" fill="teal" />
      <rect x="315" y="0" width="70" height="30" fill="green" />
      <rect x="385" y="0" width="0" height="30" fill="mediumseagreen" />
      <rect x="385" y="0" width="0" height="30" fill="lightcoral" />
      <rect x="385" y="0" width="0" height="30" fill="crimson" />
      <rect x="385" y="0" width="0" height="30" fill="tomato" />
      <rect x="385" y="0" width="0" height="30" fill="hotpink" />
      <rect x="385" y="0" width="14" height="30" fill="orange" />
    </g>
  </g>
  <g transform="translate(0, 690)">
    <text x="138" y="20" font-family="sans-serif" font-size="14" text-anchor="end">Misskey</text>
    <g transform="translate(148, 0)">
      <rect x="0" y="0" width="35" height="30" fill="mediumturquoise" />
      <rect x="35" y="0" width="280" height="30" fill="seagreen" />
      <rect x="315" y="0" width="0" height="30" fill="teal" />
      <rect x="315" y="0" width="70" height="30" fill="green" />
      <rect x="385" y="0" width="0" height="30" fill="mediumseagreen" />
      <rect x="385" y="0" width="0" height="30" fill="lightcoral" />
      <rect x="385" y="0" width="0" height="30" fill="crimson" />
      <rect x="385" y="0" width="0" height="30" fill="tomato" />
      <rect x="385" y="0" width="0" height="30" fill="hotpink" />
      <rect x="385" y="0" width="14" height="30" fill="orange" />
    </g>
  </g>
  <g transform="translate(0, 990)">
    <text x="138" y="20" font-family="sans-serif" font-size="14" text-anchor="end">Omnom</text>
    <g transform="translate(148, 0)">
      <rect x="0" y="0" width="35" height="30" fill="mediumturquoise" />
      <rect x="35" y="0" width="280" height="30" fill="seagreen" />
      <rect x="315" y="0" width="0" height="30" fill="teal" />
      <rect x="315" y="0" width="0" height="30" fill="green" />
      <rect x="315" y="0" width="14" height="30" fill="mediumseagreen" />
      <rect x="329" y="0" width="0" height="30" fill="lightcoral" />
      <rect x="329" y="0" width="0" height="30" fill="crimson" />
      <rect x="329" y="0" width="0" height="30" fill="tomato" />
      <rect x="329" y="0" width="70" height="30" fill="hotpink" />
      <rect x="400" y="0" width="0" height="30" fill="orange" />
    </g>
  </g>
  <g transform="translate(0, 740)">
    <text x="138" y="20" font-family="sans-serif" font-size="14" text-anchor="end">OpenWebCalendar</text>
    <g transform="translate(148, 0)">
      <rect x="0" y="0" width="35" height="30" fill="mediumturquoise" />
      <rect x="35" y="0" width="280" height="30" fill="seagreen" />
      <rect x="315" y="0" width="0" height="30" fill="teal" />
      <rect x="315" y="0" width="70" height="30" fill="green" />
      <rect x="385" y="0" width="0" height="30" fill="mediumseagreen" />
      <rect x="385" y="0" width="0" height="30" fill="lightcoral" />
      <rect x="385" y="0" width="0" height="30" fill="crimson" />
      <rect x="385" y="0" width="0" height="30" fill="tomato" />
      <rect x="385" y="0" width="0" height="30" fill="hotpink" />
      <rect x="385" y="0" width="14" height="30" fill="orange" />
    </g>
  </g>
  <g transform="translate(0, 790)">
    <text x="138" y="20" font-family="sans-serif" font-size="14" text-anchor="end">Pixelfed</text>
    <g transform="translate(148, 0)">
      <rect x="0" y="0" width="35" height="30" fill="mediumturquoise" />
      <rect x="35" y="0" width="280" height="30" fill="seagreen" />
      <rect x="315" y="0" width="0" height="30" fill="teal" />
      <rect x="315" y="0" width="70" height="30" fill="green" />
      <rect x="385" y="0" width="0" height="30" fill="mediumseagreen" />
      <rect x="385" y="0" width="0" height="30" fill="lightcoral" />
      <rect x="385" y="0" width="0" height="30" fill="crimson" />
      <rect x="385" y="0" width="0" height="30" fill="tomato" />
      <rect x="385" y="0" width="0" height="30" fill="hotpink" />
      <rect x="385" y="0" width="14" height="30" fill="orange" />
    </g>
  </g>
  <g transform="translate(0, 290)">
    <text x="138" y="20" font-family="sans-serif" font-size="14" text-anchor="end">Rosenpass</text>
    <g transform="translate(148, 0)">
      <rect x="0" y="0" width="55" height="30" fill="mediumturquoise" />
      <rect x="55" y="0" width="222" height="30" fill="seagreen" />
      <rect x="277" y="0" width="0" height="30" fill="teal" />
      <rect x="277" y="0" width="111" height="30" fill="green" />
      <rect x="388" y="0" width="0" height="30" fill="mediumseagreen" />
      <rect x="388" y="0" width="0" height="30" fill="lightcoral" />
      <rect x="388" y="0" width="0" height="30" fill="crimson" />
      <rect x="388" y="0" width="0" height="30" fill="tomato" />
      <rect x="388" y="0" width="0" height="30" fill="hotpink" />
      <rect x="388" y="0" width="11" height="30" fill="orange" />
    </g>
  </g>
  <g transform="translate(0, 890)">
    <text x="138" y="20" font-family="sans-serif" font-size="14" text-anchor="end">SCION-1M</text>
    <g transform="translate(148, 0)">
      <rect x="0" y="0" width="129" height="30" fill="mediumturquoise" />
      <rect x="129" y="0" width="207" height="30" fill="seagreen" />
      <rect x="337" y="0" width="0" height="30" fill="teal" />
      <rect x="337" y="0" width="0" height="30" fill="green" />
      <rect x="337" y="0" width="0" height="30" fill="mediumseagreen" />
      <rect x="337" y="0" width="0" height="30" fill="lightcoral" />
      <rect x="337" y="0" width="0" height="30" fill="crimson" />
      <rect x="337" y="0" width="0" height="30" fill="tomato" />
      <rect x="337" y="0" width="51" height="30" fill="hotpink" />
      <rect x="389" y="0" width="10" height="30" fill="orange" />
    </g>
  </g>
  <g transform="translate(0, 940)">
    <text x="138" y="20" font-family="sans-serif" font-size="14" text-anchor="end">gnunet</text>
    <g transform="translate(148, 0)">
      <rect x="0" y="0" width="111" height="30" fill="mediumturquoise" />
      <rect x="111" y="0" width="222" height="30" fill="seagreen" />
      <rect x="333" y="0" width="0" height="30" fill="teal" />
      <rect x="333" y="0" width="0" height="30" fill="green" />
      <rect x="333" y="0" width="0" height="30" fill="mediumseagreen" />
      <rect x="333" y="0" width="0" height="30" fill="lightcoral" />
      <rect x="333" y="0" width="0" height="30" fill="crimson" />
      <rect x="333" y="0" width="0" height="30" fill="tomato" />
      <rect x="333" y="0" width="55" height="30" fill="hotpink" />
      <rect x="388" y="0" width="11" height="30" fill="orange" />
    </g>
  </g>
  <g transform="translate(0, 340)">
    <text x="138" y="20" font-family="sans-serif" font-size="14" text-anchor="end">mCaptcha</text>
    <g transform="translate(148, 0)">
      <rect x="0" y="0" width="55" height="30" fill="mediumturquoise" />
      <rect x="55" y="0" width="222" height="30" fill="seagreen" />
      <rect x="277" y="0" width="0" height="30" fill="teal" />
      <rect x="277" y="0" width="111" height="30" fill="green" />
      <rect x="388" y="0" width="0" height="30" fill="mediumseagreen" />
      <rect x="388" y="0" width="0" height="30" fill="lightcoral" />
      <rect x="388" y="0" width="0" height="30" fill="crimson" />
      <rect x="388" y="0" width="0" height="30" fill="tomato" />
      <rect x="388" y="0" width="0" height="30" fill="hotpink" />
      <rect x="388" y="0" width="11" height="30" fill="orange" />
    </g>
  </g>
  <g transform="translate(0, 840)">
    <text x="138" y="20" font-family="sans-serif" font-size="14" text-anchor="end">ntpd-rs</text>
    <g transform="translate(148, 0)">
      <rect x="0" y="0" width="35" height="30" fill="mediumturquoise" />
      <rect x="35" y="0" width="280" height="30" fill="seagreen" />
      <rect x="315" y="0" width="0" height="30" fill="teal" />
      <rect x="315" y="0" width="70" height="30" fill="green" />
      <rect x="385" y="0" width="0" height="30" fill="mediumseagreen" />
      <rect x="385" y="0" width="0" height="30" fill="lightcoral" />
      <rect x="385" y="0" width="0" height="30" fill="crimson" />
      <rect x="385" y="0" width="0" height="30" fill="tomato" />
      <rect x="385" y="0" width="0" height="30" fill="hotpink" />
      <rect x="385" y="0" width="14" height="30" fill="orange" />
    </g>
  </g>
  <g transform="translate(0, 240)">
    <text x="138" y="20" font-family="sans-serif" font-size="14" text-anchor="end">wireguard</text>
    <g transform="translate(148, 0)">
      <rect x="0" y="0" width="61" height="30" fill="mediumturquoise" />
      <rect x="61" y="0" width="164" height="30" fill="seagreen" />
      <rect x="226" y="0" width="0" height="30" fill="teal" />
      <rect x="226" y="0" width="164" height="30" fill="green" />
      <rect x="391" y="0" width="0" height="30" fill="mediumseagreen" />
      <rect x="391" y="0" width="0" height="30" fill="lightcoral" />
      <rect x="391" y="0" width="0" height="30" fill="crimson" />
      <rect x="391" y="0" width="0" height="30" fill="tomato" />
      <rect x="391" y="0" width="0" height="30" fill="hotpink" />
      <rect x="391" y="0" width="8" height="30" fill="orange" />
    </g>
  </g>
</svg>
